<?xml version="1.0" encoding="UTF-8"?>
<!DOCTYPE svg PUBLIC "-//W3C//DTD SVG 1.0//EN" "http://www.w3.org/TR/2001/REC-SVG-20010904/DTD/svg10.dtd">
<!-- Creator: CorelDRAW 2021 (64 Bit) -->
<svg xmlns="http://www.w3.org/2000/svg" xml:space="preserve" width="298.012mm" height="208.961mm" version="1.0" style="shape-rendering:geometricPrecision; text-rendering:geometricPrecision; image-rendering:optimizeQuality; fill-rule:evenodd; clip-rule:evenodd"
viewBox="0 0 29800.18 20895.39"
 xmlns:xlink="http://www.w3.org/1999/xlink"
 xmlns:xodm="http://www.corel.com/coreldraw/odm/2003">
 <defs>
  <style type="text/css">
   <![CDATA[
    .str0 {stroke:black;stroke-width:20;stroke-miterlimit:22.9256}
    .fil0 {fill:none}
    .fil1 {fill:#282829}
   ]]>
  </style>
 </defs>
 <g id="Camada_x0020_1">
  <metadata id="CorelCorpID_0Corel-Layer"/>
  <rect class="fil0" y="-0" width="29800.18" height="20895.39"/>
  <path class="fil1" d="M11768.99 12665.55c-2.59,-301.61 38.7,-246.79 -127.37,-483.13 -296.01,-420.7 -36.6,-618.93 384.94,-528 282.72,61.09 510.87,166.72 684.28,316.57 137.82,119.35 90.35,157.44 76.31,340.97 -79.73,1043.81 -153.94,1825.46 -222.13,2345.02 -56.08,426.46 -104.72,697.24 -79.4,1145.26 19.72,348.33 89.01,1675.86 125.03,1895.4 9.86,60.59 27.33,62.93 -29.76,70.29 -206.92,26.82 -406.99,-25.83 -600.04,-158.03 -258.4,-176.67 -477.86,-9.78 -417.94,-208.43 21.64,-434.15 -31.59,-1724.58 -58.67,-1777.81 -21.15,-133.72 -119.76,-203.58 -295.76,-209.52 -795.52,-79.06 -1400.16,-110.4 -1813.75,-93.93 -388.95,15.29 -1691.15,-206.25 -1203.77,-742.45 204.92,-225.64 160.87,-162.29 220.96,-486.71 245.53,-1322.1 215.7,-2668.86 525.25,-3999.48 97.61,-419.54 234.08,-384.44 278.04,-114.58 26.99,165.97 28.83,353.17 49.64,525.32 160.12,1320.18 99.87,2209.05 -60,3528.3 -55.92,461.4 74.46,524.16 259.9,619.69 192.63,99.11 355.27,108.47 545.55,103.88 408.76,-10.03 765.68,31.25 1070.13,124.19 136.73,41.79 482.79,227.48 585.59,34.18 179.92,-338.97 106.47,-1834.64 102.96,-2246.98z"/>
  <g id="_2313468223856">
   <path class="fil1 str0" d="M25892.2 5990.88c178.25,-472.43 122.08,-1249.96 697.4,-1640.66 112.49,-76.36 180.23,-128.87 260.66,-11.57 119.74,174.64 136.81,458.61 163.32,720.47 34.47,340.12 81.67,683.42 123.28,1023.46 4.46,36.77 -2.69,28.45 -33.87,26.33l-1166.05 -58.65c-80.66,-4.06 -70.84,9.85 -44.74,-59.39zm-300.48 1467.12c22.37,-41.81 11.15,-43.89 18.53,-135.77 9.27,-115.67 142.97,-1058.31 209.78,-1090.53 163.49,-79.09 1068.55,10.25 1310.06,52.54 68.6,12 59.92,36.28 85.44,106.86 65.54,180.95 142.68,464.89 188.19,499.25 94.71,71.39 225.39,46.46 245.61,-84.27 19.18,-123.9 13.07,-297.33 -56.14,-405.66 -81.64,-127.6 -208.84,-82.41 -276.37,-466.66 -59.59,-339.28 -141.34,-1506.07 -244.5,-1662.15 -82.8,-125.26 -309.13,-183.64 -465.43,-137.22 -210.14,62.35 -343.01,221.25 -487.61,368.33 -19.02,19.31 -38.26,38.53 -57.93,57.22 -73.54,69.9 -113.04,46.1 -152.63,117.85 -38.95,70.19 65.31,107.51 108.42,134.82 -59.04,431.63 -208.64,786.76 -303.93,1269.23 -194.17,15.22 -255.62,28.02 -283.87,122.73 -33.23,111.61 143.03,77.5 199.83,68.95 5.07,160.66 -93.14,433.02 -125.62,629.23 -43.5,262.87 -97.95,426.22 -45.97,517.15 23.99,41.94 98.47,105.05 134.14,38.11z"/>
   <path class="fil1 str0" d="M23104.66 5355.16c137.75,42.13 230.36,159.26 302.51,308.84 801.74,1661.49 -696.3,841.28 -1280.64,793.62 42.52,129.69 140.31,154.64 349.34,233.55 319.44,120.61 1116.48,313.88 1288.02,-26.14 159.33,-315.83 -178.83,-1211.6 -608.35,-1410.1 -54.71,-25.26 -52.86,-4.39 -52.21,-64.99 5.3,-415.38 93.34,-974.96 -521.48,-905.45 -290.18,32.8 -436.6,289.66 -481.1,425.93 -17.66,54.13 -31.44,69.77 17.55,86.22 104.72,35.05 74.94,0.39 177.08,-0.68 28.31,-0.3 24.51,3.7 38.23,30.13 83.78,161.67 91.39,404.56 84.59,618.34 -6.11,191.99 -101.2,880.61 52.7,933.9 84.56,-102.57 90.61,-651.79 108.85,-834.03 339.33,105.23 342.68,73.31 470.01,-153.83 21.62,-38.76 14.15,-47.79 54.91,-35.31zm-301.49 57.84c24.42,-41.81 56.31,-79.46 58.65,-139.54 1.24,-32.44 10.53,-29.13 -22.04,-36.54 -62.49,-14.4 -105.89,-1.14 -159.91,32.38 -25.07,15.57 -22.24,10.99 -17.46,40.48 11.8,72.49 31.73,96.81 81.05,122.3 43.66,22.53 36.31,21.04 59.72,-19.08zm87.91 -284.59c159.62,-722.84 -256.76,-953.7 -550.32,-530.52 -45.09,64.96 -39.08,48.7 27.11,84.33 200.59,108.13 213.46,173.63 215.57,460.46 51.37,-18.37 100.75,-28.28 148.47,-31.01 55.07,-3.19 108,3.12 159.16,16.74z"/>
   <path class="fil1 str0" d="M4805.45 7131.84c-221.03,-191.38 -1055.71,-143.17 -1323.23,-135.18 -265.63,7.97 -528.11,28.87 -792.97,34.49 -308.09,6.54 -494.43,-3.67 -529.87,-320.83 -51.43,-460.17 61.22,-1036.89 202.86,-1407.5 105.49,-276 276.65,-768.97 425.77,-1061.59 74.45,-146.09 54.13,-115.45 213.52,-132.97 482.63,-53.09 996.25,-153.86 1455.68,-176.69 118.43,-5.85 250.02,-15.67 194.4,-112.71 -69.61,-121.46 -250.65,-49.32 -421.04,-18.4 -523.62,95.06 -1067.93,155.58 -1599.98,176.03 -91.71,3.55 -141.67,18.96 -101.5,99.16 41.16,82.25 109.37,39.92 32.68,232.83 -186.02,467.58 -315.7,849.31 -466.28,1334.61 -102.9,301.3 -135.9,682.12 -117.17,1024.04 48.96,894.21 1414,309.23 2362.92,467.03 156.53,26.01 293.37,94.9 456.07,86.51 84.92,-4.26 65.48,-39.17 8.13,-88.85z"/>
   <path class="fil1 str0" d="M10618.46 4856.57c182.57,-21.49 490.3,-48.05 717.28,-46.95 89.73,0.43 104.78,-18.14 136.74,58.03 111.81,266.58 119.32,178.05 266.22,676.14 70.55,301.75 36.06,589.4 -44.57,881.88 -98.8,358.42 -188.84,436.28 -603.05,375.52 -271.55,-39.85 -735.1,-303.6 -909.33,-549.34 -128.51,-181.3 -162.21,-4.23 -22.14,161.67 282.15,288.19 730.98,516.47 1114.92,568.85 423.3,57.74 501.78,-86.06 587.34,-435.17 222.85,-909.68 -154.96,-1437.93 -252.01,-1706.68 -32.64,-90.41 17.98,-48.44 101.79,-56.64 260.73,-25.48 826.85,-40.08 890.37,-117.03 81.99,-42.56 -54.81,-121.3 -121.16,-130.89 -83.75,-12.13 -851.75,120.94 -985.3,84.14 -99.67,-83.2 -11.41,-108.2 -187.28,-114.05 -60.92,-2.02 9.53,61.18 -1.69,113.07 -234.16,41.26 -569.63,64.08 -805.39,92.66 -74.09,8.97 -681.3,136.9 -734.51,170.73 -92.43,58.75 -82.32,102.9 24.15,93.5 293.14,-26.14 542.26,-86.25 827.63,-119.44z"/>
   <path class="fil1 str0" d="M13010.43 6952.62c73.8,-66.29 138.5,-187.73 223.34,-282.08 75.33,-83.78 120.87,-83.2 239.59,-58.03 99.58,21.06 553.44,35.73 776.85,-9.72 60.82,-12.39 124.15,-25.85 136.61,-28.77 40.34,9.36 110.4,121.39 143.42,132.93 104.1,36.35 221.88,10.11 127.74,-130.59 -68.47,-102.35 -402.6,-373.18 -517.39,-881.14 -150.97,-668.17 90.67,-1055.16 -104.94,-1181.3 -153.44,-98.96 -151.17,1.27 -176.69,112.07 -96.43,418.75 -198.24,793.94 -367.72,1151.84 -124.84,263.62 -253.93,519.34 -402.89,769.2 -64.66,108.26 -147.82,175.65 -208.87,251.62 -30.01,37.29 -37.75,37 -22.11,81.12 20.39,57.74 96.53,123.7 153.05,72.85zm1301.74 -557.6c-71.2,-234.84 -257.25,-382.25 -299.18,-715.88 -11.94,-94.9 -43.6,-230.33 -60.9,-319.96 -15.99,-82.9 -20.54,-134.01 -82.9,-31.31 -95.35,157.28 -395.38,855.81 -467.16,1042.38 -51.1,132.93 196.88,136.77 457.86,117.88 94.09,-6.79 482.12,5.37 452.27,-93.11z"/>
   <path class="fil1 str0" d="M21134.95 5597.03c-95.52,-499.02 -28.28,-1034.81 -397.82,-1069.46 -31.28,51.79 -81.7,308.29 -116.16,481.2 -85.51,428.76 -280.14,998.65 -482.02,1392.25 -62.74,122.34 -126.82,252.89 -118.82,371.59 3.61,53.64 3.64,45.22 52.24,53.9l101.5 18.17c46.59,8.32 34.69,-0.26 45.48,-52.34 25.91,-123.96 45.68,-226.95 162.48,-263.88 141.22,-44.64 343.33,-51.79 493.49,-26.85 597.43,99.19 604.29,263.58 827.01,226.91 -31.6,-124.64 -154.03,-218.07 -243.66,-330.43 -121.49,-152.2 -288.03,-614.59 -323.73,-801.06zm165.86 789.68c18.66,27.67 28.41,50.69 58.42,90.16 -315.89,-78.94 -615.37,-183.32 -961.47,-113.3 -1.72,-51.56 374.61,-1161.01 430.68,-1401.29 7.8,-33.62 7.84,-25.62 25.29,8 35.8,69.12 50.46,167.22 68.5,239.59 94.12,400.13 174.9,817.16 378.58,1176.84z"/>
   <path class="fil1 str0" d="M19102.59 4610.7c-26.4,-71.88 -71.98,-97.5 -177.37,-124.35 -329.45,-83.85 -1040.13,-53.55 -985.13,367.26 58,443.26 579.29,477.24 987.6,610.59 345.97,112.95 652.99,407.68 621.55,798.14 -17.16,212.97 -191.7,502.92 -367.98,602.7 -224.7,127.18 -451.77,167.48 -754.21,97.17 -108.55,-25.23 -278.51,-95.29 -391.09,-175.61 -110.64,-79.04 -88.04,-157.6 -220.94,-158.64 4.69,152.59 152.27,263.81 303.12,341.93 377.05,195.12 872.92,262.78 1238.36,2.08 669.01,-476.97 251.23,-1402.36 -451.39,-1612.59 -134.08,-40.15 -267.03,-57.97 -441.83,-121.27 -130.18,-47.14 -261.93,-119.38 -322.56,-250.55 -94.81,-205.26 50.39,-451.74 577.01,-416.8 321.97,21.39 265.99,143.29 384.88,39.95z"/>
   <path class="fil1 str0" d="M7101.01 6753.49c-449.64,454.67 -1328.5,467.81 -1379.38,-440.82 -12.84,-228.87 60.99,-567.88 211.67,-746.71 44.67,-52.99 96.39,-76.56 111.15,-126.24 22.89,-77.37 -16.06,-100.23 -86.02,-98.37 -86.19,2.34 -145.38,63.62 -202.01,173.04 -219.63,424.31 -287.19,998.65 26.66,1394.43 410.17,517.12 1405.74,219.76 1680.96,-369.48 197.11,-421.87 276.07,-1113.9 144.31,-1491.79 -42.56,-152.47 -93.21,-55.99 -121.23,120.94 -18.63,117.56 -21.53,260.36 -20.62,364.98 3.65,412.98 -61.67,912.87 -365.5,1220.02z"/>
   <path class="fil1 str0" d="M24556.49 6522.58c16.06,85.27 1.75,120.81 86.47,132.77 167.85,-0.71 135.09,-31.27 101.11,-197.91 -80.36,-293.6 18.96,-1467.84 -29.16,-1794.72 -14.01,-95.62 -17.78,-81.05 -94.51,-88.63 -62,-6.11 -81.44,-9.72 -94.93,74.52 -53.48,333.64 -2.79,1699.1 31.02,1873.97z"/>
   <path class="fil1 str0" d="M2490.61 5911.01l1381.95 -63.33c86.25,-3.22 461.11,22.5 343.85,-92.3 -107.84,-105.53 -1300.76,-59.46 -1620.17,46.88 -44.12,18.17 -325.81,118.89 -105.63,108.75z"/>
   <path class="fil1 str0" d="M15407.8 3361.18c-212.8,125.23 -566.83,521.9 -714.97,697.85 -60.44,71.82 -89.21,69.31 -32.16,136.12 70.94,82.9 185.7,133.43 267.59,-8.78 165.89,-287.9 391.09,-495.21 541.93,-767.18 58.75,-106.12 50.3,-124.32 -62.39,-58z"/>
   <path class="fil1 str0" d="M24721.73 3676.7c-61.64,-10.08 -164.98,-11.02 -158.97,80.53 6.11,88.66 84.66,87.78 175.68,82.41 125.68,-7.41 119.83,-108.22 85.96,-132.7 -14.44,-10.34 -78.91,-26.34 -102.67,-30.24z"/>
  </g>
  <path class="fil1" d="M16166.89 10971.6c-489.4,-227.78 -549.37,-378.78 -180.19,-452.87 131.08,-26.12 267.72,-40.67 401.17,-65.65 683.65,-128.39 1244.28,-303.22 1917.29,-452.97 667.55,-148.51 1288.75,-216.22 1863.31,-202.91 115.19,2.69 322.73,-27.24 489.72,51.92 371.04,175.86 639.58,216.63 296.72,529.15 -922.68,840.73 -1556.26,1484.23 -1900.15,1929.88 -182.06,235.83 -580.86,597.78 -324.9,748.36 79.37,46.75 414.79,109.3 547.72,151.71 929.7,297.65 1448.83,587.15 1800.36,1574.95 311.79,875.92 545.66,1871.67 -216.01,2424.66 -1088.84,790.15 -3434.24,641.85 -4834.15,358.75 -268.76,-54.5 -416.35,-113.02 -680.15,-221.79 -210.23,-87.01 -42.52,-200.53 30.86,-192.79 1223.74,128.39 3805.58,468.35 4600.81,-618.53 370.93,-507.68 216.52,-1814.4 -39.33,-2314.95 -190.52,-372.69 -766.62,-670.65 -1155,-756.72 -919.89,-203.22 -2199.56,242.95 -1112.58,-1184.01 246.46,-323.45 596.13,-749.9 1077.28,-1259.86 387.14,-347.5 356.28,-497.05 -92.78,-448.43 -1270.38,385.59 -2100.39,519.65 -2490,402.1z"/>
 </g>
</svg>
