<?xml version="1.0" encoding="UTF-8"?>
<!DOCTYPE svg PUBLIC "-//W3C//DTD SVG 1.0//EN" "http://www.w3.org/TR/2001/REC-SVG-20010904/DTD/svg10.dtd">
<!-- Creator: CorelDRAW 2021 (64 Bit) -->
<svg xmlns="http://www.w3.org/2000/svg" xml:space="preserve" width="295.107mm" height="208.556mm" version="1.0" style="shape-rendering:geometricPrecision; text-rendering:geometricPrecision; image-rendering:optimizeQuality; fill-rule:evenodd; clip-rule:evenodd"
viewBox="0 0 29509.66 20854.88"
 xmlns:xlink="http://www.w3.org/1999/xlink"
 xmlns:xodm="http://www.corel.com/coreldraw/odm/2003">
 <defs>
  <style type="text/css">
   <![CDATA[
    .str2 {stroke:#373435;stroke-width:20;stroke-miterlimit:22.9256}
    .str0 {stroke:black;stroke-width:20;stroke-miterlimit:22.9256}
    .str1 {stroke:black;stroke-width:20;stroke-miterlimit:22.9256}
    .fil0 {fill:none}
    .fil2 {fill:#373435}
    .fil1 {fill:black}
   ]]>
  </style>
 </defs>
 <g id="Camada_x0020_1">
  <metadata id="CorelCorpID_0Corel-Layer"/>
  <rect class="fil0" x="-0" width="29509.66" height="20854.88"/>
  <path class="fil1 str0" d="M11623.73 12645.38c-2.59,-301.61 38.7,-246.79 -127.37,-483.13 -296.01,-420.7 -36.6,-618.95 384.95,-528.02 282.73,61.1 510.88,166.73 684.3,316.58 137.82,119.35 90.35,157.45 76.31,340.98 -79.74,1043.83 -153.94,1825.49 -222.14,2345.07 -56.08,426.47 -104.72,697.25 -79.4,1145.29 19.73,348.34 89.01,1675.9 125.03,1895.44 9.86,60.6 27.33,62.94 -29.75,70.29 -206.93,26.83 -407.01,-25.82 -600.06,-158.03 -258.41,-176.67 -477.87,-9.78 -417.95,-208.43 21.65,-434.16 -31.59,-1724.62 -58.67,-1777.86 -21.14,-133.73 -119.76,-203.59 -295.76,-209.52 -795.54,-79.06 -1400.19,-110.4 -1813.79,-93.94 -388.96,15.3 -1691.19,-206.26 -1203.8,-742.46 204.92,-225.65 160.88,-162.3 220.97,-486.73 245.54,-1322.13 215.7,-2668.92 525.26,-3999.57 97.62,-419.53 234.09,-384.44 278.05,-114.58 26.99,165.97 28.83,353.18 49.64,525.34 160.12,1320.21 99.88,2209.09 -60.01,3528.38 -55.91,461.41 74.47,524.17 259.92,619.7 192.63,99.12 355.27,108.48 545.56,103.89 408.76,-10.03 765.7,31.26 1070.16,124.19 136.73,41.79 482.8,227.49 585.6,34.18 179.93,-338.97 106.47,-1834.68 102.96,-2247.04z"/>
  <path class="fil1 str1" d="M19921.36 13511.19c-158.81,-117.34 -97.11,-211.88 185.19,-283.5 120.45,-30.45 166.24,-32.37 280.29,-94.23 873.19,-475.07 1288,-1809.27 690.39,-2489.27 -752.97,-856.88 -1678.27,-1094.42 -2774.76,-713.25 -121.57,42.28 -88.24,57.39 -200.85,3.35 -343.44,-164.72 -614.71,-123.73 -750.26,119.82 -26.69,48.35 -56.67,77.77 -92.31,119.73 -739.79,873.02 -1023.68,1667.32 -851.93,2382.89 63.47,264.55 130.29,425.51 325.54,619.98 95.59,94.95 58.19,176.15 -111.9,243.45 -183.42,72.5 -433.91,374.29 -576.26,535.66 -979.32,1111.84 -1815.34,2742.15 -108.3,3621.49 347.11,178.79 723,190.22 1107.76,170.48 1178.42,-60.58 2512.45,-655.87 3114.53,-1617.52 530.94,-848.09 528.7,-1641.43 -7.11,-2379.86 -87.45,-120.69 -113.9,-153.85 -230.03,-239.21zm-344.48 59.07c-59.3,-84.17 -172.39,-102.55 -338.88,-54.91 -601.68,170.95 -1056.61,332.65 -1679.71,77.53 -199.81,-30.78 -323.14,50.99 -457.57,159.76 -693.83,561.48 -1292.15,1356.41 -1464.79,2146.95 -43.8,201.33 -49.48,394.28 -43.48,599.92 18.7,636.21 360.46,925.22 735.06,856.48 960.87,68.18 2310.01,-173.75 2967.15,-937.6 540.05,-627.98 825.3,-1457.68 589.29,-2284.83 -44.92,-137.32 -140.99,-287.57 -209.01,-392.92 -34.92,-54.27 -65.7,-124.69 -98.07,-170.39zm911.39 -2757.59c-257.76,-522.87 -688.4,-705.57 -1291.03,-547.88 -272.3,70.97 -603.83,130.84 -851.92,231.22 -552.2,223.47 -922.82,657.95 -1111.6,1303.02 -68.98,235.86 -126.61,553.8 -150.42,801.33 -23.81,246.33 -9.35,518.15 192.06,464.84 303.56,-80.33 211.4,216.44 593.85,68.34 149.13,-57.71 135.24,-69.3 336.33,-92 264.55,-29.89 628.05,16.63 791.57,68.5 77.45,24.62 133.48,69.3 196.06,89.28 165.68,53.15 274.38,-103.43 376.29,-193.98 113.74,-100.87 253.52,-174.71 419.36,-221.31 162.88,-45.48 164.64,-80.17 265.51,-206.52 418.89,-527.11 543.09,-1137.98 233.94,-1764.84z"/>
  <g id="_2521100277840">
   <path class="fil2 str2" d="M25746.94 5970.63c178.25,-472.43 122.08,-1249.95 697.39,-1640.66 112.49,-76.36 180.23,-128.87 260.66,-11.57 119.74,174.64 136.81,458.61 163.32,720.47 34.47,340.12 81.67,683.42 123.28,1023.46 4.46,36.77 -2.69,28.45 -33.87,26.33l-1166.05 -58.65c-80.66,-4.06 -70.84,9.85 -44.74,-59.39zm-300.48 1467.12c22.37,-41.81 11.15,-43.89 18.53,-135.77 9.27,-115.67 142.97,-1058.31 209.78,-1090.53 163.49,-79.09 1068.55,10.25 1310.06,52.54 68.6,12 59.92,36.28 85.44,106.86 65.54,180.95 142.68,464.89 188.19,499.25 94.71,71.39 225.39,46.46 245.61,-84.27 19.18,-123.9 13.07,-297.33 -56.14,-405.66 -81.64,-127.6 -208.84,-82.41 -276.37,-466.66 -59.59,-339.28 -141.34,-1506.07 -244.5,-1662.15 -82.8,-125.26 -309.13,-183.64 -465.43,-137.22 -210.14,62.35 -343.01,221.25 -487.61,368.33 -19.02,19.31 -38.26,38.53 -57.93,57.22 -73.54,69.9 -113.04,46.1 -152.63,117.85 -38.95,70.19 65.31,107.51 108.42,134.82 -59.04,431.63 -208.64,786.76 -303.93,1269.23 -194.17,15.22 -255.62,28.02 -283.87,122.73 -33.23,111.61 143.03,77.5 199.83,68.95 5.07,160.66 -93.14,433.02 -125.62,629.23 -43.5,262.87 -97.95,426.22 -45.97,517.15 23.99,41.94 98.47,105.05 134.14,38.11z"/>
   <path class="fil2 str2" d="M22959.4 5334.92c137.75,42.13 230.36,159.26 302.51,308.84 801.74,1661.49 -696.29,841.28 -1280.64,793.62 42.52,129.69 140.3,154.64 349.34,233.55 319.44,120.61 1116.48,313.88 1288.02,-26.14 159.33,-315.83 -178.83,-1211.6 -608.35,-1410.1 -54.71,-25.26 -52.86,-4.39 -52.21,-64.99 5.3,-415.37 93.34,-974.95 -521.48,-905.45 -290.18,32.8 -436.6,289.66 -481.1,425.93 -17.66,54.13 -31.44,69.77 17.55,86.22 104.72,35.05 74.94,0.39 177.08,-0.68 28.31,-0.3 24.51,3.7 38.23,30.13 83.78,161.67 91.39,404.56 84.59,618.34 -6.11,191.99 -101.2,880.61 52.7,933.9 84.56,-102.57 90.61,-651.79 108.85,-834.03 339.33,105.23 342.68,73.31 470.01,-153.83 21.62,-38.76 14.15,-47.79 54.91,-35.31zm-301.49 57.84c24.42,-41.81 56.31,-79.46 58.65,-139.53 1.24,-32.44 10.53,-29.13 -22.04,-36.54 -62.49,-14.4 -105.89,-1.14 -159.91,32.38 -25.07,15.57 -22.24,10.99 -17.46,40.48 11.8,72.49 31.73,96.81 81.05,122.3 43.66,22.53 36.31,21.04 59.72,-19.08zm87.91 -284.59c159.62,-722.84 -256.76,-953.7 -550.32,-530.52 -45.09,64.96 -39.08,48.7 27.11,84.33 200.59,108.13 213.46,173.63 215.57,460.46 51.37,-18.37 100.75,-28.28 148.47,-31.01 55.07,-3.19 108,3.12 159.16,16.74z"/>
   <path class="fil2 str2" d="M4660.2 7111.59c-221.03,-191.38 -1055.71,-143.17 -1323.23,-135.18 -265.63,7.97 -528.11,28.87 -792.97,34.49 -308.09,6.54 -494.43,-3.67 -529.87,-320.83 -51.43,-460.17 61.22,-1036.89 202.86,-1407.5 105.49,-276 276.65,-768.97 425.77,-1061.59 74.45,-146.09 54.13,-115.45 213.52,-132.97 482.63,-53.09 996.25,-153.86 1455.68,-176.69 118.43,-5.85 250.02,-15.67 194.4,-112.71 -69.61,-121.46 -250.65,-49.32 -421.03,-18.4 -523.62,95.06 -1067.93,155.58 -1599.98,176.03 -91.71,3.55 -141.67,18.96 -101.5,99.16 41.16,82.25 109.37,39.92 32.68,232.83 -186.02,467.58 -315.7,849.31 -466.28,1334.61 -102.9,301.3 -135.9,682.12 -117.17,1024.04 48.96,894.21 1414,309.23 2362.91,467.03 156.53,26.01 293.37,94.9 456.07,86.51 84.92,-4.26 65.48,-39.17 8.13,-88.85z"/>
   <path class="fil2 str2" d="M10473.21 4836.32c182.57,-21.49 490.3,-48.05 717.28,-46.95 89.73,0.43 104.78,-18.14 136.74,58.03 111.81,266.58 119.32,178.05 266.22,676.14 70.55,301.75 36.06,589.4 -44.57,881.88 -98.8,358.42 -188.84,436.28 -603.05,375.52 -271.55,-39.85 -735.1,-303.6 -909.33,-549.34 -128.51,-181.3 -162.21,-4.23 -22.14,161.67 282.15,288.19 730.98,516.47 1114.92,568.85 423.3,57.74 501.78,-86.06 587.34,-435.17 222.85,-909.68 -154.96,-1437.93 -252.01,-1706.68 -32.64,-90.41 17.98,-48.44 101.79,-56.64 260.73,-25.48 826.85,-40.08 890.37,-117.03 81.99,-42.56 -54.81,-121.3 -121.16,-130.89 -83.75,-12.13 -851.75,120.94 -985.3,84.14 -99.67,-83.2 -11.41,-108.2 -187.28,-114.05 -60.92,-2.02 9.53,61.18 -1.69,113.07 -234.16,41.26 -569.63,64.08 -805.39,92.66 -74.09,8.97 -681.3,136.9 -734.51,170.73 -92.43,58.75 -82.32,102.9 24.15,93.5 293.14,-26.14 542.26,-86.25 827.63,-119.44z"/>
   <path class="fil2 str2" d="M12865.17 6932.38c73.8,-66.29 138.49,-187.73 223.34,-282.08 75.33,-83.78 120.87,-83.2 239.59,-58.03 99.58,21.06 553.44,35.73 776.85,-9.72 60.82,-12.39 124.15,-25.85 136.61,-28.77 40.34,9.36 110.4,121.39 143.42,132.93 104.1,36.35 221.88,10.11 127.74,-130.59 -68.47,-102.35 -402.6,-373.18 -517.39,-881.14 -150.97,-668.17 90.67,-1055.16 -104.94,-1181.3 -153.44,-98.96 -151.17,1.27 -176.69,112.07 -96.43,418.74 -198.24,793.94 -367.72,1151.84 -124.84,263.62 -253.93,519.34 -402.89,769.2 -64.66,108.26 -147.82,175.65 -208.87,251.62 -30.01,37.29 -37.75,37 -22.11,81.12 20.39,57.74 96.53,123.7 153.05,72.85zm1301.74 -557.6c-71.2,-234.84 -257.25,-382.25 -299.18,-715.88 -11.94,-94.9 -43.6,-230.33 -60.9,-319.96 -15.99,-82.9 -20.54,-134.01 -82.9,-31.31 -95.35,157.28 -395.38,855.81 -467.16,1042.38 -51.1,132.93 196.88,136.77 457.86,117.88 94.09,-6.79 482.12,5.37 452.27,-93.11z"/>
   <path class="fil2 str2" d="M20989.69 5576.79c-95.52,-499.02 -28.28,-1034.81 -397.82,-1069.46 -31.28,51.79 -81.7,308.29 -116.16,481.2 -85.51,428.76 -280.14,998.65 -482.02,1392.25 -62.74,122.34 -126.82,252.89 -118.82,371.59 3.61,53.64 3.64,45.22 52.24,53.9l101.5 18.17c46.59,8.32 34.69,-0.26 45.48,-52.34 25.91,-123.96 45.68,-226.95 162.48,-263.88 141.22,-44.64 343.33,-51.79 493.49,-26.85 597.43,99.19 604.29,263.58 827.01,226.91 -31.6,-124.64 -154.03,-218.07 -243.66,-330.43 -121.49,-152.2 -288.03,-614.59 -323.73,-801.06zm165.86 789.68c18.66,27.67 28.41,50.69 58.42,90.16 -315.89,-78.94 -615.37,-183.32 -961.47,-113.3 -1.72,-51.56 374.61,-1161.01 430.68,-1401.29 7.8,-33.62 7.84,-25.62 25.29,8 35.8,69.12 50.46,167.22 68.5,239.59 94.12,400.13 174.9,817.16 378.58,1176.84z"/>
   <path class="fil2 str2" d="M18957.33 4590.45c-26.4,-71.88 -71.98,-97.5 -177.37,-124.35 -329.45,-83.85 -1040.13,-53.55 -985.13,367.26 58,443.26 579.29,477.24 987.6,610.59 345.97,112.95 652.99,407.68 621.55,798.14 -17.16,212.97 -191.7,502.92 -367.98,602.7 -224.7,127.18 -451.77,167.48 -754.21,97.17 -108.55,-25.23 -278.51,-95.29 -391.09,-175.61 -110.64,-79.04 -88.04,-157.6 -220.94,-158.64 4.69,152.59 152.27,263.81 303.12,341.93 377.05,195.12 872.92,262.78 1238.36,2.08 669.01,-476.97 251.23,-1402.36 -451.39,-1612.59 -134.08,-40.15 -267.03,-57.97 -441.83,-121.27 -130.18,-47.14 -261.93,-119.38 -322.56,-250.55 -94.81,-205.26 50.39,-451.74 577.01,-416.79 321.97,21.39 265.99,143.29 384.88,39.95z"/>
   <path class="fil2 str2" d="M6955.76 6733.25c-449.64,454.67 -1328.5,467.81 -1379.38,-440.82 -12.84,-228.87 60.99,-567.88 211.67,-746.71 44.67,-52.99 96.39,-76.56 111.15,-126.24 22.89,-77.37 -16.06,-100.23 -86.02,-98.37 -86.19,2.34 -145.38,63.62 -202.01,173.04 -219.63,424.31 -287.19,998.65 26.66,1394.43 410.17,517.12 1405.74,219.76 1680.96,-369.48 197.11,-421.87 276.07,-1113.9 144.31,-1491.79 -42.56,-152.47 -93.21,-55.99 -121.23,120.94 -18.63,117.56 -21.53,260.36 -20.62,364.98 3.65,412.98 -61.67,912.87 -365.5,1220.02z"/>
   <path class="fil2 str2" d="M24411.22 6502.33c16.06,85.27 1.75,120.81 86.47,132.77 167.85,-0.71 135.09,-31.27 101.11,-197.91 -80.36,-293.6 18.96,-1467.84 -29.16,-1794.71 -14.01,-95.62 -17.78,-81.05 -94.51,-88.63 -62,-6.11 -81.44,-9.72 -94.93,74.52 -53.48,333.64 -2.79,1699.1 31.02,1873.97z"/>
   <path class="fil2 str2" d="M2345.36 5890.77l1381.95 -63.33c86.25,-3.22 461.11,22.5 343.85,-92.3 -107.84,-105.53 -1300.76,-59.46 -1620.17,46.88 -44.12,18.17 -325.81,118.89 -105.63,108.75z"/>
   <path class="fil2 str2" d="M15262.55 3340.94c-212.8,125.23 -566.83,521.9 -714.97,697.84 -60.44,71.82 -89.21,69.31 -32.16,136.12 70.94,82.9 185.7,133.43 267.59,-8.78 165.89,-287.9 391.09,-495.21 541.93,-767.18 58.75,-106.12 50.3,-124.32 -62.39,-58z"/>
   <path class="fil2 str2" d="M24576.47 3656.46c-61.64,-10.08 -164.98,-11.02 -158.97,80.53 6.11,88.66 84.66,87.78 175.68,82.41 125.68,-7.41 119.83,-108.22 85.96,-132.7 -14.44,-10.34 -78.91,-26.34 -102.67,-30.24z"/>
  </g>
 </g>
</svg>
