<?xml version="1.0" encoding="UTF-8"?>
<!DOCTYPE svg PUBLIC "-//W3C//DTD SVG 1.0//EN" "http://www.w3.org/TR/2001/REC-SVG-20010904/DTD/svg10.dtd">
<!-- Creator: CorelDRAW 2021 (64 Bit) -->
<svg xmlns="http://www.w3.org/2000/svg" xml:space="preserve" width="405.144mm" height="208.556mm" version="1.0" style="shape-rendering:geometricPrecision; text-rendering:geometricPrecision; image-rendering:optimizeQuality; fill-rule:evenodd; clip-rule:evenodd"
viewBox="0 0 55619.02 28631.05"
 xmlns:xlink="http://www.w3.org/1999/xlink"
 xmlns:xodm="http://www.corel.com/coreldraw/odm/2003">
 <defs>
  <style type="text/css">
   <![CDATA[
    .str2 {stroke:#373435;stroke-width:27.46;stroke-miterlimit:22.9256}
    .str0 {stroke:black;stroke-width:27.46;stroke-miterlimit:22.9256}
    .str1 {stroke:black;stroke-width:27.46;stroke-miterlimit:22.9256}
    .fil0 {fill:none}
    .fil3 {fill:#373435}
    .fil2 {fill:black}
    .fil1 {fill:black}
   ]]>
  </style>
 </defs>
 <g id="Camada_x0020_1">
  <metadata id="CorelCorpID_0Corel-Layer"/>
  <rect class="fil0" x="-0.01" width="40512.94" height="28631.05"/>
  <path class="fil1 str0" d="M26093.37 17923.96c-3.56,-414.07 53.13,-338.81 -174.86,-663.28 -406.38,-577.57 -50.25,-849.73 528.48,-724.9 388.15,83.88 701.37,228.9 939.45,434.62 189.2,163.85 124.03,216.16 104.76,468.12 -109.47,1433.05 -211.35,2506.17 -304.97,3219.48 -76.99,585.49 -143.76,957.24 -109,1572.33 27.09,478.22 122.19,2300.79 171.64,2602.2 13.54,83.19 37.52,86.41 -40.84,96.5 -284.09,36.83 -558.77,-35.45 -823.8,-216.96 -354.76,-242.55 -656.06,-13.43 -573.8,-286.15 29.72,-596.05 -43.37,-2367.68 -80.54,-2440.77 -29.02,-183.59 -164.41,-279.51 -406.04,-287.65 -1092.17,-108.54 -1922.28,-151.56 -2490.1,-128.96 -533.99,21 -2321.78,-283.17 -1652.66,-1019.31 281.33,-309.79 220.87,-222.82 303.37,-668.22 337.1,-1815.12 296.13,-3664.09 721.12,-5490.9 134.01,-575.97 321.38,-527.78 381.73,-157.3 37.05,227.86 39.58,484.87 68.15,721.23 219.83,1812.48 137.12,3032.79 -82.38,4844.01 -76.75,633.46 102.23,719.62 356.84,850.76 264.46,136.07 487.74,148.92 748.98,142.62 561.17,-13.77 1051.21,42.91 1469.19,170.49 187.71,57.37 662.83,312.32 803.95,46.92 247.03,-465.36 146.16,-2518.78 141.35,-3084.89z"/>
  <path class="fil2 str1" d="M11674 23786.11c-711.38,-369.85 -719.45,-473.49 -24.08,-310.92 2068.28,597.49 3525.24,409.55 4370.62,-563.93 314.12,-361.4 438.77,-652.71 555.73,-1103.9 255.32,-984.77 311.3,-2103.26 168.07,-3355 -28.18,-247.38 -54.45,-509.87 -86.73,-754.8 -39.07,-292.73 -218.92,-318.6 -539.33,-77.89 -210.1,157.83 -329.23,247.89 -568.4,378.82 -1416.11,774.79 -2634.28,951.45 -3654.13,530.61 -1067.38,-440.55 -1756.99,-1400.72 -1729.96,-2574.94 8.84,-391.75 63.93,-739.83 253.01,-1086.86 909.69,-1667.57 4054.85,-1915.72 5865.39,-774.28 303.09,191.14 330.51,182.05 643.1,314.25 379.57,160.65 539.33,416.98 545.35,817.97 3.71,253.4 -10.76,402.37 18.57,669.99 167.17,1526.66 349.22,2935.32 545.6,4226.13 325.26,2241.61 -364.21,3598.14 -2068.42,4069.45 -1445.55,342.18 -2877.03,207.27 -4294.4,-404.69zm1733.16 -5701.41c388.81,-12.81 480.53,-175.64 275.17,-488.09 -95.95,-145.4 -55.21,-94.55 145.53,-122.85 996.16,-141.17 1647.59,-581.61 1954.4,-1320.39 142.33,-343.21 162.83,-503.85 112.48,-864.09 -78.02,-554.95 -269.4,-962.72 -574.17,-1222.77 -291.7,-249.04 -627.21,-258.78 -1000.53,-284.53 -793.75,-55.09 -1436.71,97.74 -1928.13,458.62 -967.47,709.6 -1357.82,1742.91 -1073.16,2921.23 299.52,937.24 877.41,1223.17 1703.7,1002.31 168.07,-44.84 206.51,-73.79 384.71,-79.42z"/>
  <path class="fil0" d="M55299.89 11687.12c-90.41,-85.6 -286.71,-178.32 -322.49,-56.96 -72.53,246.23 110.39,446.37 236.91,552.59 775.88,651.22 222.08,-366.6 85.58,-495.63z"/>
  <g id="_2521099699072">
   <path class="fil3 str2" d="M35347.21 8196.91c244.72,-648.59 167.59,-1716.03 957.43,-2252.41 154.43,-104.83 247.44,-176.92 357.85,-15.88 164.38,239.76 187.82,629.62 224.22,989.12 47.32,466.94 112.12,938.24 169.24,1405.08 6.12,50.48 -3.69,39.06 -46.5,36.15l-1600.83 -80.52c-110.73,-5.57 -97.25,13.52 -61.42,-81.53zm-412.52 2014.16c30.71,-57.4 15.31,-60.25 25.44,-186.39 12.73,-158.79 196.29,-1452.92 288,-1497.16 224.46,-108.58 1466.98,14.07 1798.55,72.13 94.18,16.47 82.26,49.81 117.29,146.7 89.97,248.43 195.89,638.24 258.36,685.41 130.02,98.01 309.43,63.78 337.19,-115.69 26.33,-170.09 17.94,-408.19 -77.07,-556.91 -112.08,-175.17 -286.71,-113.13 -379.42,-640.67 -81.81,-465.78 -194.05,-2067.63 -335.67,-2281.92 -113.67,-171.96 -424.39,-252.12 -638.98,-188.38 -288.5,85.6 -470.9,303.75 -669.43,505.66 -26.11,26.51 -52.52,52.89 -79.53,78.55 -100.96,95.96 -155.18,63.29 -209.55,161.79 -53.47,96.36 89.66,147.59 148.84,185.08 -81.05,592.58 -286.44,1080.12 -417.26,1742.49 -266.57,20.89 -350.93,38.47 -389.72,168.49 -45.62,153.22 196.37,106.39 274.34,94.66 6.96,220.57 -127.86,594.49 -172.45,863.85 -59.72,360.89 -134.47,585.15 -63.11,709.98 32.93,57.58 135.18,144.21 184.15,52.32z"/>
   <path class="fil3 str2" d="M31520.28 7324.15c189.11,57.84 316.26,218.65 415.31,424 1100.69,2281.01 -955.92,1154.97 -1758.16,1089.54 58.37,178.04 192.62,212.31 479.59,320.64 438.55,165.58 1532.78,430.91 1768.29,-35.89 218.75,-433.59 -245.52,-1663.36 -835.18,-1935.88 -75.11,-34.68 -72.57,-6.03 -71.67,-89.22 7.28,-570.26 128.14,-1338.49 -715.93,-1243.06 -398.38,45.03 -599.4,397.66 -660.49,584.75 -24.24,74.31 -43.16,95.78 24.09,118.36 143.76,48.12 102.88,0.54 243.11,-0.93 38.86,-0.41 33.65,5.08 52.48,41.36 115.01,221.96 125.46,555.4 116.13,848.9 -8.39,263.58 -138.93,1208.96 72.35,1282.12 116.09,-140.81 124.39,-894.82 149.43,-1145.01 465.85,144.46 470.45,100.64 645.27,-211.19 29.68,-53.21 19.43,-65.61 75.38,-48.47zm-413.91 79.4c33.52,-57.4 77.3,-109.08 80.52,-191.56 1.7,-44.53 14.46,-39.99 -30.26,-50.16 -85.79,-19.77 -145.37,-1.57 -219.54,44.45 -34.42,21.37 -30.53,15.09 -23.97,55.57 16.2,99.52 43.56,132.9 111.27,167.9 59.94,30.93 49.85,28.88 81.98,-26.19zm120.68 -390.7c219.14,-992.37 -352.5,-1309.3 -755.52,-728.34 -61.9,89.18 -53.65,66.86 37.22,115.77 275.39,148.44 293.06,238.38 295.95,632.16 70.52,-25.22 138.31,-38.82 203.84,-42.57 75.6,-4.38 148.26,4.28 218.51,22.98z"/>
   <path class="fil3 str2" d="M6397.85 9763.29c-303.45,-262.74 -1449.36,-196.56 -1816.63,-185.58 -364.68,10.94 -725.03,39.63 -1088.65,47.35 -422.97,8.98 -678.79,-5.04 -727.44,-440.46 -70.6,-631.76 84.04,-1423.52 278.5,-1932.31 144.82,-378.91 379.8,-1055.7 584.53,-1457.43 102.21,-200.57 74.31,-158.49 293.14,-182.54 662.59,-72.88 1367.73,-211.24 1998.46,-242.58 162.58,-8.03 343.25,-21.51 266.89,-154.73 -95.56,-166.74 -344.11,-67.71 -578.03,-25.26 -718.86,130.5 -1466.13,213.6 -2196.57,241.67 -125.9,4.87 -194.5,26.03 -139.34,136.13 56.51,112.91 150.15,54.8 44.86,319.65 -255.39,641.93 -433.41,1165.99 -640.15,1832.25 -141.26,413.64 -186.57,936.46 -160.85,1405.88 67.21,1227.63 1941.24,424.53 3243.98,641.18 214.9,35.71 402.76,130.28 626.13,118.76 116.58,-5.85 89.89,-53.77 11.16,-121.98z"/>
   <path class="fil3 str2" d="M14378.36 6639.65c250.65,-29.5 673.12,-65.96 984.74,-64.45 123.18,0.59 143.84,-24.9 187.72,79.66 153.5,365.98 163.8,244.44 365.49,928.25 96.85,414.26 49.5,809.17 -61.19,1210.7 -135.63,492.06 -259.26,598.96 -827.91,515.54 -372.8,-54.71 -1009.2,-416.8 -1248.39,-754.17 -176.42,-248.91 -222.7,-5.81 -30.39,221.96 387.36,395.65 1003.55,709.05 1530.64,780.96 581.14,79.27 688.88,-118.14 806.34,-597.44 305.95,-1248.87 -212.75,-1974.09 -345.98,-2343.05 -44.81,-124.12 24.68,-66.5 139.74,-77.76 357.95,-34.98 1135.16,-55.02 1222.36,-160.66 112.56,-58.43 -75.24,-166.52 -166.33,-179.69 -114.97,-16.65 -1169.34,166.03 -1352.7,115.51 -136.83,-114.22 -15.66,-148.54 -257.12,-156.57 -83.63,-2.77 13.08,83.99 -2.32,155.22 -321.47,56.64 -782.03,87.97 -1105.7,127.21 -101.71,12.31 -935.33,187.94 -1008.39,234.4 -126.89,80.65 -113.01,141.26 33.15,128.36 402.44,-35.89 744.45,-118.41 1136.23,-163.97z"/>
   <path class="fil3 str2" d="M17662.22 9517.26c101.31,-91 190.14,-257.73 306.62,-387.26 103.41,-115.01 165.93,-114.22 328.93,-79.66 136.71,28.91 759.8,49.05 1066.52,-13.34 83.49,-17.01 170.44,-35.49 187.54,-39.5 55.38,12.85 151.56,166.65 196.9,182.49 142.91,49.9 304.62,13.88 175.36,-179.28 -94,-140.51 -552.71,-512.32 -710.31,-1209.69 -207.27,-917.31 124.47,-1448.6 -144.06,-1621.77 -210.66,-135.85 -207.54,1.74 -242.58,153.85 -132.38,574.88 -272.16,1089.98 -504.83,1581.32 -171.38,361.92 -348.61,712.99 -553.11,1056.01 -88.77,148.62 -202.94,241.15 -286.75,345.44 -41.2,51.19 -51.82,50.79 -30.35,111.36 27.99,79.27 132.52,169.82 210.12,100.01zm1787.12 -765.51c-97.74,-322.41 -353.17,-524.77 -410.73,-982.82 -16.39,-130.28 -59.85,-316.22 -83.6,-439.26 -21.95,-113.81 -28.2,-183.97 -113.81,-42.98 -130.9,215.93 -542.8,1174.91 -641.35,1431.06 -70.15,182.49 270.29,187.76 628.59,161.83 129.17,-9.32 661.89,7.37 620.91,-127.82z"/>
   <path class="fil3 str2" d="M28816.12 7656.21c-131.13,-685.09 -38.82,-1420.66 -546.15,-1468.23 -42.94,71.1 -112.16,423.24 -159.47,660.63 -117.39,588.64 -384.6,1371.02 -661.75,1911.38 -86.13,167.95 -174.1,347.19 -163.12,510.14 4.96,73.64 5,62.08 71.72,74l139.34 24.94c63.96,11.42 47.62,-0.36 62.44,-71.85 35.57,-170.17 62.71,-311.58 223.07,-362.27 193.88,-61.28 471.34,-71.1 677.5,-36.86 820.19,136.17 829.61,361.86 1135.38,311.52 -43.38,-171.11 -211.47,-299.38 -334.52,-453.63 -166.78,-208.96 -395.43,-843.75 -444.44,-1099.75zm227.71 1084.13c25.62,37.99 39,69.59 80.2,123.77 -433.67,-108.37 -844.82,-251.68 -1319.97,-155.54 -2.36,-70.78 514.29,-1593.91 591.27,-1923.79 10.71,-46.15 10.76,-35.17 34.72,10.98 49.15,94.89 69.27,229.58 94.04,328.93 129.21,549.32 240.12,1121.86 519.74,1615.65z"/>
   <path class="fil3 str2" d="M26025.96 6302.1c-36.24,-98.68 -98.82,-133.85 -243.51,-170.71 -452.29,-115.11 -1427.97,-73.51 -1352.46,504.2 79.62,608.54 795.29,655.19 1355.85,838.26 474.97,155.06 896.47,559.69 853.3,1095.74 -23.56,292.38 -263.18,690.45 -505.18,827.43 -308.49,174.6 -620.23,229.93 -1035.44,133.4 -149.02,-34.64 -382.36,-130.82 -536.91,-241.09 -151.89,-108.51 -120.86,-216.37 -303.32,-217.8 6.44,209.49 209.05,362.18 416.14,469.42 517.64,267.88 1198.4,360.76 1700.1,2.86 918.46,-654.82 344.91,-1925.26 -619.7,-2213.88 -184.07,-55.12 -366.6,-79.58 -606.58,-166.48 -178.71,-64.71 -359.6,-163.89 -442.83,-343.97 -130.16,-281.8 69.18,-620.19 792.16,-572.21 442.02,29.36 365.17,196.73 528.38,54.84z"/>
   <path class="fil3 str2" d="M9549.35 9243.87c-617.3,624.21 -1823.86,642.25 -1893.71,-605.19 -17.63,-314.21 83.73,-779.62 290.6,-1025.14 61.32,-72.75 132.33,-105.1 152.59,-173.3 31.42,-106.22 -22.05,-137.6 -118.09,-135.04 -118.32,3.21 -199.59,87.34 -277.34,237.57 -301.53,582.53 -394.27,1371.02 36.6,1914.37 563.1,709.94 1929.9,301.7 2307.74,-507.24 270.61,-579.18 379.01,-1529.24 198.13,-2048.03 -58.43,-209.33 -127.96,-76.86 -166.43,166.03 -25.58,161.39 -29.56,357.44 -28.31,501.07 5.01,566.96 -84.66,1253.25 -501.78,1674.92z"/>
   <path class="fil3 str2" d="M33513.45 8926.86c22.05,117.06 2.4,165.85 118.71,182.27 230.44,-0.97 185.45,-42.93 138.81,-271.71 -110.32,-403.07 26.03,-2015.15 -40.03,-2463.91 -19.23,-131.27 -24.41,-111.27 -129.75,-121.67 -85.11,-8.39 -111.8,-13.34 -130.32,102.3 -73.42,458.04 -3.83,2332.64 42.58,2572.72z"/>
   <path class="fil3 str2" d="M3219.88 8087.26l1897.24 -86.94c118.41,-4.42 633.05,30.89 472.06,-126.71 -148.04,-144.87 -1785.78,-81.63 -2224.29,64.36 -60.57,24.94 -447.29,163.21 -145.01,149.29z"/>
   <path class="fil3 str2" d="M20953.5 4586.68c-292.15,171.92 -778.18,716.5 -981.57,958.05 -82.97,98.6 -122.47,95.15 -44.15,186.87 97.39,113.81 254.95,183.18 367.37,-12.05 227.75,-395.25 536.91,-679.86 744,-1053.24 80.65,-145.68 69.05,-170.67 -85.65,-79.62z"/>
   <path class="fil3 str2" d="M33740.31 5019.84c-84.62,-13.84 -226.5,-15.13 -218.25,110.55 8.39,121.71 116.22,120.51 241.19,113.13 172.54,-10.17 164.51,-148.57 118.01,-182.17 -19.82,-14.19 -108.33,-36.16 -140.95,-41.51z"/>
  </g>
 </g>
</svg>
